<?xml version="1.0" encoding="utf-8"?>
<!-- Generator: Adobe Illustrator 24.0.0, SVG Export Plug-In . SVG Version: 6.00 Build 0)  -->
<svg version="1.1" id="Layer_1" xmlns="http://www.w3.org/2000/svg" xmlns:xlink="http://www.w3.org/1999/xlink" x="0px" y="0px"
	 viewBox="0 0 1000 300" style="enable-background:new 0 0 1000 300;" xml:space="preserve">
<style type="text/css">
	.st0{fill:#068284;}
	.st1{fill:#0C3C3F;}
</style>
<g>
	<g>
		<path class="st0" d="M856,38.39c-92.64-0.39-185.29-0.78-277.93-1.16s-185.29-0.78-277.93-1.16
			c-51.99-0.22-103.97-0.44-155.96-0.65c-15.76-0.59-30.46,2.69-44.11,9.86c-14.19,4.62-26.47,12.51-36.84,23.67
			C52.06,79.3,44.17,91.58,39.56,105.77c-7.17,13.64-10.45,28.34-9.86,44.11c1.36,10.14,2.73,20.29,4.09,30.43
			c5.44,19.39,15.25,36.23,29.44,50.51c7.72,5.97,15.45,11.93,23.17,17.9c17.86,10.36,37.11,15.57,57.78,15.63
			c92.64,0.39,185.29,0.78,277.93,1.16c92.64,0.39,185.29,0.78,277.93,1.16c51.99,0.22,103.97,0.44,155.96,0.65
			c15.76,0.59,30.46-2.69,44.11-9.86c14.19-4.62,26.47-12.51,36.84-23.67c11.16-10.37,19.05-22.65,23.67-36.84
			c7.17-13.64,10.45-28.34,9.86-44.11c-1.36-10.14-2.73-20.29-4.09-30.43c-5.44-19.39-15.25-36.23-29.44-50.51
			c-7.72-5.97-15.45-11.93-23.17-17.9C895.92,43.66,876.66,38.45,856,38.39L856,38.39z"/>
	</g>
</g>
<g>
	<g>
		<path class="st1" d="M207.11,200.19c-6.64-3.52-11.7-8.67-15.19-15.48c-3.48-6.8-5.22-15.02-5.22-24.66v-11.43
			c0-10.02,1.68-18.59,5.03-25.68c3.35-7.1,8.22-12.5,14.6-16.21c6.38-3.71,14.06-5.57,23.05-5.57c8.46,0,15.69,2.12,21.68,6.35
			c5.99,4.23,10.56,10.35,13.72,18.36c3.16,8.01,4.74,17.61,4.74,28.81v6.64h-68.36v-16.02h49.41c-0.59-8.27-2.72-14.7-6.4-19.29
			c-3.68-4.59-8.61-6.88-14.79-6.88c-7.55,0-13.4,2.48-17.53,7.42c-4.14,4.95-6.2,11.95-6.2,21v12.89c0,8.4,2.21,14.84,6.64,19.34
			c4.43,4.49,10.71,6.74,18.85,6.74c4.04,0,8.04-0.81,12.01-2.44c3.97-1.63,7.52-3.91,10.64-6.84l13.09,13.09
			c-5.01,4.82-10.64,8.54-16.89,11.18s-12.53,3.96-18.85,3.96C221.75,205.46,213.75,203.71,207.11,200.19z"/>
		<path class="st1" d="M309.99,200.92c-5.24-3.22-9.23-7.93-11.96-14.11c-2.73-6.18-4.1-13.61-4.1-22.27v-22.36
			c0-8.72,1.33-16.18,4-22.36c2.67-6.18,6.56-10.89,11.67-14.11c5.11-3.22,11.25-4.83,18.41-4.83c5.99,0,11.47,1.56,16.46,4.69
			s9,7.52,12.06,13.18l-2.05,20.7c0-4.3-0.78-7.97-2.34-11.04c-1.56-3.06-3.83-5.39-6.79-6.98c-2.96-1.59-6.56-2.39-10.79-2.39
			c-6.58,0-11.67,2.05-15.28,6.15s-5.42,9.86-5.42,17.29v22.07c0,7.36,1.81,13.04,5.42,17.04s8.71,6.01,15.28,6.01
			c4.23,0,7.83-0.83,10.79-2.49c2.96-1.66,5.22-4.05,6.79-7.18s2.34-6.87,2.34-11.23l1.37,21.39c-2.02,5.01-5.32,9.21-9.91,12.6
			s-10.24,5.08-16.94,5.08C321.56,205.76,315.23,204.15,309.99,200.92z M354.47,62.01h19.92V204h-19.92V62.01z"/>
		<path class="st1" d="M424.59,164.25c0,7.1,1.81,12.58,5.42,16.46c3.61,3.87,8.71,5.81,15.28,5.81c6.51,0,11.56-1.72,15.14-5.18
			c3.58-3.45,5.37-8.37,5.37-14.75l1.37,21.19c-2.08,5.01-5.47,9.21-10.16,12.6c-4.69,3.39-10.45,5.08-17.29,5.08
			c-11.2,0-19.84-3.6-25.93-10.79c-6.09-7.19-9.13-17.33-9.13-30.42v-61.62h19.92V164.25z M465.8,102.63h19.82V204H465.8V102.63z"/>
		<path class="st1" d="M515.89,102.63h19.92v142.58h-19.92V102.63z M544.8,200.92c-4.69-3.03-8.14-7.31-10.35-12.84l1.37-21.19
			c0,4.36,0.78,8.07,2.34,11.13c1.56,3.06,3.82,5.4,6.79,7.03c2.96,1.63,6.56,2.44,10.79,2.44c6.58,0,11.67-2,15.28-6.01
			s5.42-9.65,5.42-16.94v-21.97c0-7.42-1.81-13.18-5.42-17.29s-8.71-6.15-15.28-6.15c-4.23,0-7.83,0.78-10.79,2.34
			c-2.96,1.56-5.22,3.86-6.79,6.88s-2.34,6.66-2.34,10.89l-2.05-19.53c3.06-5.92,7.06-10.5,12.01-13.72
			c4.95-3.22,10.45-4.83,16.5-4.83c7.16,0,13.3,1.61,18.41,4.83c5.11,3.22,9,7.93,11.67,14.11c2.67,6.19,4,13.64,4,22.36v22.07
			c0,8.59-1.37,15.95-4.1,22.07c-2.73,6.12-6.74,10.79-12.01,14.01s-11.59,4.83-18.95,4.83
			C554.99,205.46,549.49,203.95,544.8,200.92z"/>
		<path class="st1" d="M640.99,200.29c-6.25-3.45-11.02-8.48-14.31-15.09c-3.29-6.61-4.93-14.57-4.93-23.88v-16.5
			c0-9.18,1.64-17.04,4.93-23.58c3.29-6.54,8.06-11.52,14.31-14.94s13.77-5.13,22.56-5.13s16.31,1.71,22.56,5.13
			s11.02,8.4,14.31,14.94c3.29,6.54,4.93,14.4,4.93,23.58v16.8c0,9.25-1.64,17.14-4.93,23.68c-3.29,6.54-8.06,11.54-14.31,14.99
			c-6.25,3.45-13.77,5.18-22.56,5.18S647.24,203.74,640.99,200.29z M679.71,179.98c3.81-4.36,5.71-10.48,5.71-18.36v-16.8
			c0-7.88-1.9-13.96-5.71-18.26s-9.2-6.45-16.16-6.45c-6.97,0-12.35,2.15-16.16,6.45s-5.71,10.39-5.71,18.26v16.8
			c0,7.88,1.9,14,5.71,18.36c3.81,4.36,9.2,6.54,16.16,6.54C670.52,186.52,675.9,184.34,679.71,179.98z"/>
		<path class="st1" d="M746.8,200.92c-5.24-3.22-9.23-7.93-11.96-14.11c-2.73-6.18-4.1-13.61-4.1-22.27v-22.36
			c0-8.72,1.33-16.18,4-22.36c2.67-6.18,6.56-10.89,11.67-14.11c5.11-3.22,11.25-4.83,18.41-4.83c5.99,0,11.47,1.56,16.46,4.69
			s9,7.52,12.06,13.18l-2.05,20.7c0-4.3-0.78-7.97-2.34-11.04c-1.56-3.06-3.83-5.39-6.79-6.98c-2.96-1.59-6.56-2.39-10.79-2.39
			c-6.58,0-11.67,2.05-15.28,6.15s-5.42,9.86-5.42,17.29v22.07c0,7.36,1.81,13.04,5.42,17.04s8.71,6.01,15.28,6.01
			c4.23,0,7.83-0.83,10.79-2.49c2.96-1.66,5.22-4.05,6.79-7.18s2.34-6.87,2.34-11.23l1.37,21.39c-2.02,5.01-5.32,9.21-9.91,12.6
			s-10.24,5.08-16.94,5.08C758.38,205.76,752.04,204.15,746.8,200.92z M791.29,62.01h19.92V204h-19.92V62.01z"/>
	</g>
</g>
</svg>
