<?xml version="1.0" encoding="utf-8"?>
<!-- Generator: Adobe Illustrator 24.0.0, SVG Export Plug-In . SVG Version: 6.00 Build 0)  -->
<svg version="1.1" id="Layer_1" xmlns="http://www.w3.org/2000/svg" xmlns:xlink="http://www.w3.org/1999/xlink" x="0px" y="0px"
	 viewBox="0 0 360 108" style="enable-background:new 0 0 360 108;" xml:space="preserve">
<style type="text/css">
	.st0{fill:#0C3C3F;}
</style>
<image style="overflow:visible;" width="1920" height="234" xlink:href="C4594107.jpg"  transform="matrix(1 0 0 1 -7892 -7892)">
</image>
<g>
	<g>
		<path class="st0" d="M84.5,73.5c-2.3-1.2-4.1-3-5.3-5.4c-1.2-2.4-1.8-5.3-1.8-8.6v-4c0-3.5,0.6-6.5,1.8-9c1.2-2.5,2.9-4.4,5.1-5.7
			c2.2-1.3,4.9-2,8.1-2c3,0,5.5,0.7,7.6,2.2c2.1,1.5,3.7,3.6,4.8,6.4s1.7,6.2,1.7,10.1v2.3h-24v-5.6h17.3c-0.2-2.9-1-5.2-2.2-6.8
			c-1.3-1.6-3-2.4-5.2-2.4c-2.6,0-4.7,0.9-6.1,2.6c-1.5,1.7-2.2,4.2-2.2,7.4v4.5c0,2.9,0.8,5.2,2.3,6.8c1.6,1.6,3.8,2.4,6.6,2.4
			c1.4,0,2.8-0.3,4.2-0.9c1.4-0.6,2.6-1.4,3.7-2.4l4.6,4.6c-1.8,1.7-3.7,3-5.9,3.9c-2.2,0.9-4.4,1.4-6.6,1.4
			C89.6,75.4,86.8,74.8,84.5,73.5z"/>
		<path class="st0" d="M120.6,73.8c-1.8-1.1-3.2-2.8-4.2-4.9c-1-2.2-1.4-4.8-1.4-7.8v-7.8c0-3.1,0.5-5.7,1.4-7.8
			c0.9-2.2,2.3-3.8,4.1-4.9c1.8-1.1,3.9-1.7,6.5-1.7c2.1,0,4,0.5,5.8,1.6c1.7,1.1,3.2,2.6,4.2,4.6l-0.7,7.3c0-1.5-0.3-2.8-0.8-3.9
			c-0.5-1.1-1.3-1.9-2.4-2.4c-1-0.6-2.3-0.8-3.8-0.8c-2.3,0-4.1,0.7-5.4,2.2c-1.3,1.4-1.9,3.5-1.9,6.1v7.7c0,2.6,0.6,4.6,1.9,6
			c1.3,1.4,3.1,2.1,5.4,2.1c1.5,0,2.7-0.3,3.8-0.9c1-0.6,1.8-1.4,2.4-2.5c0.6-1.1,0.8-2.4,0.8-3.9l0.5,7.5c-0.7,1.8-1.9,3.2-3.5,4.4
			c-1.6,1.2-3.6,1.8-5.9,1.8C124.6,75.5,122.4,74.9,120.6,73.8z M136.1,25.1h7v49.8h-7V25.1z"/>
		<path class="st0" d="M160.7,61c0,2.5,0.6,4.4,1.9,5.8c1.3,1.4,3.1,2,5.4,2c2.3,0,4.1-0.6,5.3-1.8c1.3-1.2,1.9-2.9,1.9-5.2l0.5,7.4
			c-0.7,1.8-1.9,3.2-3.6,4.4c-1.6,1.2-3.7,1.8-6.1,1.8c-3.9,0-7-1.3-9.1-3.8c-2.1-2.5-3.2-6.1-3.2-10.7V39.4h7L160.7,61L160.7,61z
			 M175.2,39.4h6.9v35.5h-6.9V39.4z"/>
		<path class="st0" d="M192.7,39.4h7v50h-7V39.4z M202.9,73.8c-1.6-1.1-2.9-2.6-3.6-4.5l0.5-7.4c0,1.5,0.3,2.8,0.8,3.9
			s1.3,1.9,2.4,2.5c1,0.6,2.3,0.9,3.8,0.9c2.3,0,4.1-0.7,5.4-2.1c1.3-1.4,1.9-3.4,1.9-5.9v-7.7c0-2.6-0.6-4.6-1.9-6.1
			c-1.3-1.4-3.1-2.2-5.4-2.2c-1.5,0-2.7,0.3-3.8,0.8c-1,0.5-1.8,1.4-2.4,2.4c-0.6,1.1-0.8,2.3-0.8,3.8l-0.7-6.8
			c1.1-2.1,2.5-3.7,4.2-4.8c1.7-1.1,3.7-1.7,5.8-1.7c2.5,0,4.7,0.6,6.5,1.7c1.8,1.1,3.2,2.8,4.1,4.9c0.9,2.2,1.4,4.8,1.4,7.8v7.7
			c0,3-0.5,5.6-1.4,7.7c-1,2.1-2.4,3.8-4.2,4.9c-1.8,1.1-4.1,1.7-6.6,1.7C206.4,75.4,204.5,74.9,202.9,73.8z"/>
		<path class="st0" d="M236.6,73.6c-2.2-1.2-3.9-3-5-5.3c-1.2-2.3-1.7-5.1-1.7-8.4v-5.8c0-3.2,0.6-6,1.7-8.3s2.8-4,5-5.2
			s4.8-1.8,7.9-1.8s5.7,0.6,7.9,1.8s3.9,2.9,5,5.2s1.7,5,1.7,8.3V60c0,3.2-0.6,6-1.7,8.3c-1.2,2.3-2.8,4-5,5.3s-4.8,1.8-7.9,1.8
			S238.8,74.8,236.6,73.6z M250.1,66.5c1.3-1.5,2-3.7,2-6.4v-5.9c0-2.8-0.7-4.9-2-6.4s-3.2-2.3-5.7-2.3c-2.4,0-4.3,0.8-5.7,2.3
			c-1.3,1.5-2,3.6-2,6.4V60c0,2.8,0.7,4.9,2,6.4c1.3,1.5,3.2,2.3,5.7,2.3C246.9,68.8,248.8,68,250.1,66.5z"/>
		<path class="st0" d="M273.7,73.8c-1.8-1.1-3.2-2.8-4.2-4.9c-1-2.2-1.4-4.8-1.4-7.8v-7.8c0-3.1,0.5-5.7,1.4-7.8
			c0.9-2.2,2.3-3.8,4.1-4.9c1.8-1.1,3.9-1.7,6.5-1.7c2.1,0,4,0.5,5.8,1.6c1.7,1.1,3.2,2.6,4.2,4.6l-0.7,7.3c0-1.5-0.3-2.8-0.8-3.9
			c-0.5-1.1-1.3-1.9-2.4-2.4c-1-0.6-2.3-0.8-3.8-0.8c-2.3,0-4.1,0.7-5.4,2.2s-1.9,3.5-1.9,6.1v7.7c0,2.6,0.6,4.6,1.9,6
			c1.3,1.4,3.1,2.1,5.4,2.1c1.5,0,2.7-0.3,3.8-0.9c1-0.6,1.8-1.4,2.4-2.5c0.6-1.1,0.8-2.4,0.8-3.9l0.5,7.5c-0.7,1.8-1.9,3.2-3.5,4.4
			s-3.6,1.8-5.9,1.8C277.7,75.5,275.5,74.9,273.7,73.8z M289.2,25.1h7v49.8h-7V25.1z"/>
	</g>
</g>
</svg>
