<svg xmlns="http://www.w3.org/2000/svg" viewBox="0 0 141 140.9616"><defs><style>.cls-1{fill:#0c3c3f;}</style></defs><title>fcbk</title><g id="OBJECTS"><path class="cls-1" d="M75.50011,3.37173H71.4999A68.4999,68.4999,0,0,0,3,71.87163v4.0001a68.486,68.486,0,0,0,66.98111,68.4616V90.03963h-18.142v-21.62h18.142V51.54653a28.65525,28.65525,0,0,1,28.623-28.623H114.0673v22.56H98.60411a6.06973,6.06973,0,0,0-6.063,6.063v16.8731H114.0673l-3.38419,21.62h-18.142v52.1936A68.52731,68.52731,0,0,0,144,75.87173v-4.0001A68.4999,68.4999,0,0,0,75.50011,3.37173Z" transform="translate(-3 -3.37173)"/></g></svg>