<svg id="Layer_1" data-name="Layer 1" xmlns="http://www.w3.org/2000/svg" viewBox="0 0 378.37529 378.3742"><defs><style>.cls-1{fill:#0c3c3f;}.cls-2{fill:#fff;fill-rule:evenodd;}</style></defs><title>fcbk</title><circle class="cls-1" cx="256.00003" cy="256.00015" r="189.18723" transform="translate(-172.85113 189.18716) rotate(-45)"/><path class="cls-2" d="M226.35355,313.0974c0-17.7052-.0683-35.4104.0635-53.1133.0244-2.9846-.8195-3.9183-3.8049-3.7961-5.5165.2236-11.0486-.0236-16.5731.1043-2.2365.0567-3.0605-.5633-3.0361-2.9325q.1671-16.569.0116-33.1475c-.0204-2.1251.6202-2.8241,2.7686-2.7765,5.6486.1301,11.3085-.1582,16.9463.1213,3.2675.1602,3.9444-1.0009,3.8761-4.0334q-.29595-12.6105-.0127-25.2351c.2245-10.2685,2.9803-19.8564,9.0975-28.2062,7.7403-10.5741,18.7452-15.4083,31.4407-15.9746,13.0391-.5791,26.1114-.2577,39.1661-.3983,1.8204-.0207,2.3632.6299,2.3553,2.3993q-.0876,16.759.0079,33.5233c.0176,1.9874-.631,2.5957-2.5821,2.5645-6.2793-.0975-12.5586-.0496-18.8339-.0331-8.3574.0263-13.3594,4.3253-13.883,12.5977-.4198,6.6319-.1131,13.3036-.2673,19.955-.0567,2.3692,1.3516,2.2071,2.9197,2.2051,9.5411-.0147,19.0859.0947,28.6271-.0683,2.8006-.0488,3.7244.5956,3.4041,3.5439-1.201,11.1016-2.2323,22.2247-3.1836,33.3536-.2166,2.5117-1.3632,2.9899-3.619,2.9528-7.5274-.1162-15.0624-.0802-22.5958-.0323-5.4102.0323-4.8847-.7926-4.8847,4.7251-.0255,34.6544-.0722,69.3104.0763,103.9648.0156,3.6601-.9198,4.5684-4.5411,4.504q-19.395-.3576-38.7969.006c-3.6437.0722-4.2435-1.1642-4.2149-4.4141C226.42385,348.0036,226.35355,330.5523,226.35355,313.0974Z" transform="translate(-66.81236 -66.8129)"/></svg>