<svg id="Layer_1" data-name="Layer 1" xmlns="http://www.w3.org/2000/svg" viewBox="0 0 30.83 27.05"><defs><style>.cls-1{fill:#068284;}</style></defs><title>hmenu</title><path class="cls-1" d="M21.48,2.43H10a2.53,2.53,0,0,0-2.5,2.5A2.54,2.54,0,0,0,10,7.43H21.48A2.53,2.53,0,0,0,24,4.93a2.54,2.54,0,0,0-2.5-2.5Z" transform="translate(-0.59 -2.43)"/><path class="cls-1" d="M29,13.49H3c-3.22,0-3.22,5,0,5H29c3.22,0,3.22-5,0-5Z" transform="translate(-0.59 -2.43)"/><path class="cls-1" d="M21.87,24.49H10.39a2.5,2.5,0,0,0,0,5H21.87a2.5,2.5,0,0,0,0-5Z" transform="translate(-0.59 -2.43)"/></svg>