<svg id="Layer_1" data-name="Layer 1" xmlns="http://www.w3.org/2000/svg" viewBox="0 0 256 256"><defs><style>.cls-1{fill:#0c3c3f;}</style></defs><title>inst</title><path class="cls-1" d="M127.99975,23.06353c34.17763,0,38.22564.13007,51.72272.74589,12.47988.56957,19.25739,2.6548,23.76827,4.40723a39.66325,39.66325,0,0,1,14.71753,9.57508,39.65594,39.65594,0,0,1,9.57457,14.71753c1.75294,4.51089,3.83816,11.28839,4.40774,23.76776.61582,13.49758.74588,17.5456.74588,51.72324s-.13006,38.22565-.74588,51.72272c-.56958,12.47989-2.6548,19.25738-4.40774,23.76826a42.38533,42.38533,0,0,1-24.2921,24.29212c-4.51088,1.75293-11.28839,3.83816-23.76827,4.40773-13.495.61581-17.54306.74589-51.72272.74589s-38.22769-.13008-51.72273-.74589c-12.47988-.56957-19.25738-2.6548-23.76776-4.40773a39.6537,39.6537,0,0,1-14.718-9.57459,39.65564,39.65564,0,0,1-9.57458-14.71753c-1.75294-4.51088-3.83817-11.28837-4.40774-23.76774-.61582-13.49759-.74589-17.54561-.74589-51.72324s.13007-38.22566.74589-51.72273c.56957-12.47988,2.6548-19.25738,4.40774-23.76827a39.65572,39.65572,0,0,1,9.57458-14.71753,39.661,39.661,0,0,1,14.718-9.57508c4.51038-1.75243,11.28788-3.83766,23.76724-4.40723,13.4976-.61582,17.54561-.74589,51.72325-.74589m0-23.06353c-34.763,0-39.12142.14735-52.774.77027-13.62461.62192-22.92888,2.78539-31.07113,5.94982A62.74236,62.74236,0,0,0,21.48335,21.48386,62.74219,62.74219,0,0,0,6.71958,44.15514C3.55515,52.29739,1.39168,61.60166.76977,75.22627.14684,88.87833,0,93.23729,0,128.00026s.14684,39.12192.76977,52.774c.62191,13.62462,2.78538,22.9289,5.94981,31.07114a62.74657,62.74657,0,0,0,14.76377,22.67128,62.74252,62.74252,0,0,0,22.67128,14.76378c8.14225,3.16441,17.44652,5.32789,31.07113,5.94981,13.65257.62292,18.011.76976,52.774.76976s39.12192-.14684,52.774-.76976c13.62462-.62192,22.92888-2.7854,31.07113-5.94981a65.45314,65.45314,0,0,0,37.435-37.43506c3.16443-8.14224,5.32791-17.44652,5.94981-31.07114.62293-13.65205.77028-18.011.77028-52.774s-.14735-39.12193-.77028-52.774c-.6219-13.62461-2.78538-22.92888-5.94981-31.07113a62.74219,62.74219,0,0,0-14.76377-22.67128A62.74228,62.74228,0,0,0,211.84486,6.72009c-8.14225-3.16443-17.44651-5.3279-31.07113-5.94982C167.12167.14735,162.76271,0,127.99975,0Zm0,62.27031a65.72994,65.72994,0,1,0,65.72994,65.73A65.73016,65.73016,0,0,0,127.99975,62.27031Zm0,108.39687a42.66692,42.66692,0,1,1,42.66692-42.66692A42.6673,42.6673,0,0,1,127.99975,170.66718ZM211.68634,59.67343a15.36,15.36,0,1,1-15.35977-15.35977A15.35993,15.35993,0,0,1,211.68634,59.67343Z"/></svg>