<svg id="White" xmlns="http://www.w3.org/2000/svg" viewBox="0 0 400 400"><defs><style>.cls-1{fill:#0c3c3f;}</style></defs><title>twtr</title><path class="cls-1" d="M350,400H50A50.01823,50.01823,0,0,1,0,350V50A50.01824,50.01824,0,0,1,50,0H350a50.01823,50.01823,0,0,1,50,50V350A50.01823,50.01823,0,0,1,350,400ZM153.6,301.6c94.3,0,145.9-78.2,145.9-145.9,0-2.2,0-4.4-.1-6.6A104.46749,104.46749,0,0,0,325,122.5a103.92686,103.92686,0,0,1-29.5,8.1,51.59149,51.59149,0,0,0,22.6-28.4,102,102,0,0,1-32.6,12.4,51.29142,51.29142,0,0,0-88.7,35.1,56.67657,56.67657,0,0,0,1.3,11.7A145.61291,145.61291,0,0,1,92.4,107.8a51.48469,51.48469,0,0,0,15.9,68.5,51.867,51.867,0,0,1-23.2-6.4v.7a51.3863,51.3863,0,0,0,41.1,50.3,51.57679,51.57679,0,0,1-23.1.9A51.2763,51.2763,0,0,0,151,257.4a102.84751,102.84751,0,0,1-63.7,22,98.67839,98.67839,0,0,1-12.2-.7,145.86226,145.86226,0,0,0,78.5,22.9"/></svg>