<svg id="Layer_1" data-name="Layer 1" xmlns="http://www.w3.org/2000/svg" viewBox="0 0 22.706 18.454"><defs><style>.cls-1{fill:#0c3c3f;}</style></defs><title>twtr</title><path class="cls-1" d="M27.353,8.958a9.3283,9.3283,0,0,1-2.675.733,4.67092,4.67092,0,0,0,2.048-2.578,9.30019,9.30019,0,0,1-2.958,1.13,4.66056,4.66056,0,0,0-7.98679,2.36759A4.758,4.758,0,0,0,15.83,12.493,13.22863,13.22863,0,0,1,6.228,7.625a4.6661,4.6661,0,0,0,1.442,6.22,4.6475,4.6475,0,0,1-2.11-.583v.06A4.66076,4.66076,0,0,0,9.297,17.89a4.729,4.729,0,0,1-2.104.08,4.661,4.661,0,0,0,4.352,3.234,9.3481,9.3481,0,0,1-5.786,1.995,9.5007,9.5007,0,0,1-1.112-.065A13.24822,13.24822,0,0,0,25.042,11.973c0-.2-.005-.402-.014-.602a9.47068,9.47068,0,0,0,2.323-2.41Z" transform="translate(-4.647 -6.773)"/></svg>